<svg width="231" height="46" viewBox="0 0 231 46" xmlns="http://www.w3.org/2000/svg"><g fill="none" fill-rule="evenodd"><path d="M16.157 28.419a7.56 7.56 0 01-.245 1.875 8.318 8.318 0 01-.743 1.886 8.954 8.954 0 01-1.243 1.752 7.76 7.76 0 01-1.752 1.437 9.426 9.426 0 01-2.27.979c-.842.244-1.779.367-2.81.367-.443 0-.936-.048-1.477-.143a14.766 14.766 0 01-3.347-1.019 9.382 9.382 0 01-1.517-.836c-.091-.054-.16-.299-.205-.734a14.745 14.745 0 01-.069-1.528c0-.585.026-1.186.078-1.804a8.59 8.59 0 01.255-1.56l.998.102a8.88 8.88 0 001.116 2.12 7.34 7.34 0 001.477 1.539 6.03 6.03 0 003.69 1.254c.587 0 1.168-.112 1.742-.337a5.304 5.304 0 001.556-.937 4.696 4.696 0 001.116-1.427c.28-.55.42-1.152.42-1.804 0-.829-.176-1.542-.528-2.14a5.989 5.989 0 00-1.39-1.6 11.017 11.017 0 00-1.957-1.264 89.674 89.674 0 00-2.25-1.11 35.54 35.54 0 01-2.252-1.173c-.73-.414-1.383-.89-1.957-1.427a6.411 6.411 0 01-1.39-1.885c-.352-.72-.528-1.576-.528-2.568 0-.639.15-1.342.45-2.11.3-.768.776-1.488 1.429-2.16.652-.673 1.497-1.234 2.535-1.682 1.037-.449 2.3-.673 3.787-.673.626 0 1.253.048 1.879.143a12.36 12.36 0 011.742.387c.535.163 1.018.36 1.448.591.43.231.764.483.999.754.09.082.09.262 0 .54a5.514 5.514 0 01-.412.918 9.89 9.89 0 01-.606.968 4.94 4.94 0 01-.568.693l-.9-.122a6.974 6.974 0 00-1.096-1.284 5.785 5.785 0 00-1.194-.846 5.185 5.185 0 00-1.223-.459 5.184 5.184 0 00-1.165-.143c-.705 0-1.305.106-1.801.316a3.758 3.758 0 00-1.233.816 3.117 3.117 0 00-.714 1.11 3.42 3.42 0 00-.225 1.183c0 .639.176 1.206.528 1.702.352.496.819.951 1.4 1.365.58.415 1.239.812 1.976 1.193l2.27 1.172c.777.4 1.534.835 2.271 1.304a10.893 10.893 0 011.977 1.6 7.282 7.282 0 011.4 2.049c.352.768.528 1.654.528 2.66zm20.256-2.405c0 .829-.101 1.664-.303 2.507a13.796 13.796 0 01-.842 2.456 14.32 14.32 0 01-1.263 2.242c-.482.7-1.001 1.308-1.556 1.824a7.276 7.276 0 01-1.742 1.223c-.606.299-1.21.449-1.81.449-.77 0-1.612-.208-2.525-.622-.914-.414-1.873-1.043-2.877-1.886v9.336c0 .217.244.435.734.652.489.217 1.347.421 2.573.612v1.08H17.29v-1.08c.861-.218 1.523-.425 1.987-.622.463-.197.695-.411.695-.642v-21.79c0-.502-.023-.917-.069-1.243-.046-.326-.16-.587-.343-.785-.182-.196-.45-.339-.802-.427-.352-.089-.842-.146-1.468-.174v-1.019a23.402 23.402 0 002.78-.652 17.56 17.56 0 001.193-.408c.392-.15.796-.319 1.214-.51l.724.755.176 3.526a19.812 19.812 0 011.987-1.957c.646-.543 1.26-.988 1.84-1.335.58-.346 1.115-.598 1.605-.754.489-.156.923-.234 1.301-.234.888 0 1.716.207 2.486.621.77.415 1.439 1.026 2.006 1.835.568.808 1.011 1.8 1.331 2.975.32 1.176.48 2.525.48 4.047zm-3.23 1.406c0-1.223-.134-2.33-.4-3.322-.268-.992-.62-1.838-1.058-2.538-.437-.7-.943-1.237-1.517-1.61-.574-.374-1.161-.561-1.761-.561-.235 0-.52.058-.852.173-.332.116-.708.32-1.125.612a10.92 10.92 0 00-1.37 1.172 18.166 18.166 0 00-1.605 1.855v8.459c.626.448 1.19.812 1.693 1.09.502.28.965.496 1.39.653.423.156.815.261 1.174.315a6.89 6.89 0 001.047.082c.64 0 1.226-.136 1.761-.408.535-.271.999-.68 1.39-1.223.392-.543.695-1.209.91-1.997.216-.788.323-1.706.323-2.752zm23.135-1.203c0 1.36-.245 2.67-.734 3.934a11.422 11.422 0 01-1.987 3.353 9.945 9.945 0 01-2.906 2.334 7.36 7.36 0 01-3.494.877c-1.28 0-2.434-.245-3.465-.734a7.87 7.87 0 01-2.642-2.018c-.731-.856-1.295-1.875-1.693-3.058-.399-1.182-.597-2.466-.597-3.852 0-.897.107-1.78.323-2.65.215-.87.518-1.695.91-2.476a10.98 10.98 0 011.419-2.16 9.67 9.67 0 011.85-1.703 8.88 8.88 0 012.192-1.12 7.473 7.473 0 012.466-.408c1.265 0 2.41.244 3.435.733a7.841 7.841 0 012.633 2.029c.73.863 1.294 1.885 1.693 3.067.398 1.182.597 2.466.597 3.852zm-3.66.714c0-1.074-.15-2.096-.45-3.068-.301-.971-.696-1.827-1.185-2.568-.49-.74-1.05-1.328-1.683-1.763-.633-.435-1.282-.653-1.948-.653-.94 0-1.722.194-2.349.581a4.302 4.302 0 00-1.507 1.6c-.378.68-.649 1.482-.812 2.406a17.238 17.238 0 00-.245 2.996c0 1.074.16 2.09.48 3.047.32.958.734 1.797 1.243 2.518.509.72 1.076 1.29 1.703 1.712.626.42 1.24.632 1.84.632.874 0 1.621-.173 2.24-.52a4.2 4.2 0 001.527-1.478c.399-.639.689-1.42.871-2.344.183-.924.275-1.957.275-3.098zm19.794-9.601c.117.082.163.35.137.806a12.86 12.86 0 01-.206 1.58c-.11.597-.251 1.199-.42 1.803-.17.605-.334 1.09-.49 1.458h-1.037c-.144-1.101-.405-1.923-.783-2.467-.379-.543-.842-.815-1.39-.815-.274 0-.59.102-.95.306-.358.204-.733.533-1.125.988-.391.456-.78 1.05-1.164 1.784-.385.733-.748 1.637-1.087 2.71v8.296c0 .204.255.415.764.632.509.218 1.376.422 2.603.612v1.08h-9.571v-1.08c.861-.204 1.523-.404 1.986-.601.463-.197.695-.411.695-.643V22.263c0-.448-.013-.825-.039-1.131a6.734 6.734 0 00-.098-.744 1.67 1.67 0 00-.147-.449 2.057 2.057 0 00-.166-.265 1.384 1.384 0 00-.294-.234 1.537 1.537 0 00-.41-.153 4.215 4.215 0 00-.617-.091l-.91-.072v-1.019a55.14 55.14 0 001.468-.326c.456-.109.893-.224 1.31-.347.418-.122.826-.254 1.224-.397.398-.143.793-.309 1.184-.5l.725.755.254 4.076c.352-.68.74-1.31 1.165-1.895.424-.584.874-1.094 1.35-1.529a6.18 6.18 0 011.507-1.03 3.765 3.765 0 011.635-.376c.457 0 .933.06 1.429.183.495.122.985.326 1.468.612zm14.851 16.124c-1.436 1.1-2.747 1.919-3.934 2.456-1.188.536-2.127.805-2.819.805-.483 0-.946-.1-1.39-.296a3.065 3.065 0 01-1.164-.927c-.333-.421-.597-.965-.793-1.63-.196-.667-.293-1.475-.293-2.426V19.287h-2.467l-.47-.632 1.527-1.508h1.41v-4.77l2.877-2.425.646.57v6.625h6.263l.607.632a6.143 6.143 0 01-.44.652 10.93 10.93 0 01-.539.652 8.332 8.332 0 01-.538.55c-.176.164-.33.286-.46.368-.313-.164-.786-.323-1.419-.48-.633-.156-1.419-.234-2.359-.234h-1.115v10.355c0 .775.039 1.42.117 1.936.078.517.196.935.352 1.254.157.32.36.543.607.672.248.13.542.194.881.194.457 0 1.018-.099 1.683-.295.666-.197 1.52-.574 2.564-1.132l.666 1.183zm14.477-3.119c0 .965-.134 1.79-.4 2.476-.268.687-.614 1.267-1.038 1.743-.424.476-.9.856-1.429 1.142a7.804 7.804 0 01-1.585.652 8.851 8.851 0 01-1.488.295c-.463.048-.839.072-1.125.072-.353 0-.738-.031-1.155-.092a11.071 11.071 0 01-1.302-.275 12.138 12.138 0 01-2.73-1.121c-.092-.041-.154-.269-.186-.683a16.187 16.187 0 01-.04-1.447c.007-.55.043-1.118.108-1.702.066-.584.15-1.06.255-1.427l1.076.224c.065.625.235 1.2.51 1.722a4.784 4.784 0 002.544 2.273c.56.218 1.16.326 1.8.326.94 0 1.684-.255 2.232-.764.548-.51.822-1.22.822-2.13 0-.544-.137-1.026-.411-1.447a4.847 4.847 0 00-1.087-1.162c-.45-.353-.962-.686-1.536-.999l-1.762-.958a21.122 21.122 0 01-1.605-.927 8.06 8.06 0 01-1.4-1.122 5.169 5.169 0 01-.988-1.385c-.247-.51-.371-1.091-.371-1.743 0-.843.176-1.597.528-2.263a5.26 5.26 0 011.39-1.681 6.158 6.158 0 011.986-1.04 7.572 7.572 0 012.3-.356c.457 0 .943.037 1.458.112.516.075 1.018.18 1.508.315.489.137.946.3 1.37.49.424.19.773.407 1.047.652.078.068.091.262.039.58-.052.32-.14.674-.264 1.06-.124.388-.261.762-.411 1.122-.15.36-.278.608-.382.744l-.959-.163c-.522-1.046-1.113-1.804-1.771-2.273-.66-.469-1.341-.703-2.046-.703-.417 0-.792.068-1.125.204-.333.136-.614.31-.842.52a2.125 2.125 0 00-.695 1.559c0 .435.118.825.353 1.172.235.346.55.673.949.978.398.306.861.601 1.39.887.528.285 1.086.591 1.673.917.56.3 1.129.618 1.703.958.574.34 1.09.73 1.546 1.172.457.442.829.945 1.116 1.509.287.564.43 1.226.43 1.987z" fill="#FFF"/><path d="M113.118.022c21.542 21.312 20.638 43.959 20.638 43.959-1.167-11.437-10.166-17.89-10.166-17.89-.038-.804-.172-1.69-.363-2.627.937.372 2.255.57 3.129 1.12-.532-.612-2.142-1.322-3.323-2.005a36.058 36.058 0 00-.407-1.55l-5.341 16.88-1.683-.518-9.95-25.269c-.74-1.858-2.555-2.376-2.555-2.376V8.661h2.638c2.727 0 4.458-.172 4.458-.172l.172.172c-.477 1.039-.734 2.727-.258 3.981l6.23 16.7c.3.825.604 1.95.822 2.77l4.477-14.12c-1.34-3.736-3.159-7.677-4.77-10.915.881-.006 1.804.395 1.804.395-.93-.47-2.256-1.38-2.324-1.425a142.542 142.542 0 00-3.228-6.025zm30.263 8.639h-6.577v1.085c2.248.646 2.724 1.729 2.079 3.763l-5.861 18.482.921 3.343 6.797-21.436c1.299-3.851 2.814-4.627 2.814-4.627l-.173-.61zm14.243 7.938c.122.08.17.349.143.805-.028.454-.099.982-.215 1.58a20.199 20.199 0 01-.442 1.802 11.91 11.91 0 01-.513 1.458h-1.087c-.151-1.101-.424-1.922-.82-2.466-.398-.543-.883-.816-1.457-.816-.287 0-.619.102-.996.307-.376.203-.768.532-1.178.988-.41.455-.818 1.048-1.22 1.784-.404.732-.784 1.637-1.14 2.71v8.296c0 .205.267.414.8.63.533.218 1.443.424 2.729.614v1.08h-10.032v-1.08c.903-.204 1.596-.405 2.082-.602.486-.196.728-.411.728-.642V21.531c0-.45-.013-.826-.04-1.132a6.203 6.203 0 00-.104-.743 1.602 1.602 0 00-.328-.714 1.398 1.398 0 00-.306-.235 1.652 1.652 0 00-.433-.152 4.64 4.64 0 00-.645-.092c-.253-.02-.571-.043-.954-.07v-1.02a58.33 58.33 0 001.539-.327c.477-.107.936-.224 1.373-.346.438-.122.865-.255 1.283-.397.417-.143.83-.309 1.24-.5l.76.754.268 4.077c.368-.679.776-1.312 1.219-1.896.445-.584.916-1.094 1.417-1.529a6.458 6.458 0 011.579-1.029 4.113 4.113 0 011.713-.378c.478 0 .978.062 1.497.184.52.123 1.033.327 1.54.613zm1.424 18.772v-1.08c.931-.19 1.63-.398 2.103-.622.473-.224.709-.432.709-.622v-11.19c0-.693-.01-1.253-.032-1.682-.02-.428-.116-.76-.287-.998-.171-.238-.448-.411-.83-.52-.383-.109-.94-.197-1.663-.265v-1.02a30.2 30.2 0 002.944-.65 19.748 19.748 0 002.657-.92h.903v17.245c0 .163.221.363.667.602.444.237 1.166.452 2.164.642v1.08h-9.335zm7.18-25.703a2.989 2.989 0 01-.8 2.059c-.246.257-.537.46-.871.61-.337.15-.695.225-1.077.225-.657 0-1.165-.173-1.529-.52-.363-.346-.544-.86-.544-1.539a2.994 2.994 0 01.8-2.059 2.633 2.633 0 011.908-.815c.644 0 1.155.167 1.539.5.383.332.574.845.574 1.539zm16.784 23.052c-1.506 1.102-2.88 1.92-4.124 2.457-1.244.536-2.228.805-2.955.805a3.7 3.7 0 01-1.456-.295 3.2 3.2 0 01-1.22-.928c-.35-.422-.626-.965-.831-1.63-.206-.666-.308-1.475-.308-2.426V18.555h-2.586l-.491-.632 1.6-1.509h1.477v-4.77l3.016-2.424.678.57v6.624h6.565l.635.632a6.483 6.483 0 01-.463.653c-.184.23-.373.448-.564.651a8.429 8.429 0 01-.564.552 3.468 3.468 0 01-.482.367c-.328-.164-.825-.324-1.488-.48-.662-.156-1.487-.234-2.472-.234h-1.167v10.354c0 .774.039 1.42.121 1.936.082.517.206.935.37 1.254.164.32.375.545.636.673.26.129.567.193.924.193.478 0 1.066-.097 1.764-.295.697-.198 1.592-.574 2.686-1.131l.7 1.182zm17.468-8.662c-.247.272-.609.541-1.086.804-.48.267-.939.487-1.376.664h-10.423a10.75 10.75 0 00.433 2.925c.273.916.657 1.714 1.148 2.394a5.657 5.657 0 001.794 1.62c.706.403 1.502.604 2.391.604.425 0 .838-.028 1.241-.083a5.581 5.581 0 001.303-.357 9.98 9.98 0 001.56-.806 24.582 24.582 0 002.03-1.426c.178.096.35.258.514.489.163.232.279.401.348.51-.93.98-1.75 1.767-2.461 2.364-.712.6-1.385 1.063-2.021 1.398a6.493 6.493 0 01-1.887.66 11.78 11.78 0 01-2.043.164 7.26 7.26 0 01-3.107-.683 7.867 7.867 0 01-2.574-1.927c-.738-.828-1.328-1.827-1.766-2.996-.437-1.168-.656-2.473-.656-3.912 0-.91.1-1.801.299-2.67a10.641 10.641 0 012.246-4.567 9.428 9.428 0 011.886-1.712c.33-.23.69-.448 1.088-.652.396-.204.81-.384 1.241-.54a9.828 9.828 0 011.324-.376 6.23 6.23 0 011.292-.145c.889 0 1.69.117 2.4.348.71.23 1.337.546 1.878.947.539.401.998.873 1.374 1.418.376.543.684 1.12.924 1.732.238.612.413 1.243.521 1.895.11.652.164 1.29.164 1.916zm-7.897-6.013c-.685 0-1.303.132-1.858.398a4.304 4.304 0 00-1.445 1.122 6.08 6.08 0 00-1.016 1.74 9.632 9.632 0 00-.565 2.244h8.125c.314 0 .523-.051.626-.154.101-.101.154-.294.154-.581 0-.38-.056-.842-.164-1.385a5.157 5.157 0 00-.606-1.57 3.983 3.983 0 00-1.221-1.283c-.52-.354-1.197-.53-2.03-.53zm24.071-1.446c.122.08.17.349.142.805-.027.454-.099.982-.214 1.58a20.651 20.651 0 01-.442 1.802 11.95 11.95 0 01-.513 1.458h-1.087c-.15-1.101-.424-1.922-.82-2.466-.397-.543-.883-.816-1.458-.816-.286 0-.617.102-.995.307-.376.203-.768.532-1.178.988-.41.455-.818 1.048-1.22 1.784-.405.732-.786 1.637-1.14 2.71v8.296c0 .205.267.414.8.63.533.218 1.442.424 2.728.614v1.08h-10.03v-1.08c.902-.204 1.597-.405 2.08-.602.487-.196.73-.411.73-.642V21.531c0-.45-.014-.826-.042-1.132a6.157 6.157 0 00-.103-.743 1.563 1.563 0 00-.328-.714 1.408 1.408 0 00-.308-.235 1.644 1.644 0 00-.43-.152 4.663 4.663 0 00-.647-.092c-.253-.02-.57-.043-.953-.07v-1.02c.548-.11 1.06-.217 1.538-.327a26.712 26.712 0 002.657-.743c.417-.143.83-.309 1.24-.5l.76.754.267 4.077c.368-.679.776-1.312 1.221-1.896.443-.584.915-1.094 1.416-1.529a6.454 6.454 0 011.58-1.029 4.108 4.108 0 011.712-.378c.478 0 .978.062 1.497.184a5.9 5.9 0 011.54.613zm14.156 13.003c0 .964-.14 1.79-.42 2.477a5.647 5.647 0 01-1.086 1.743 5.471 5.471 0 01-1.498 1.14 8.538 8.538 0 01-1.662.654 9.847 9.847 0 01-1.56.295 12.8 12.8 0 01-1.18.07c-.367 0-.772-.03-1.209-.09a12.342 12.342 0 01-1.364-.275 13.404 13.404 0 01-1.447-.47c-.493-.19-.965-.407-1.414-.652-.097-.04-.162-.268-.196-.682a15.257 15.257 0 01-.04-1.447c.006-.55.043-1.118.111-1.703a8.99 8.99 0 01.267-1.426l1.128.224c.07.626.246 1.2.534 1.721.288.524.657.98 1.108 1.367.452.387.971.69 1.558.907a5.402 5.402 0 001.889.325c.984 0 1.764-.254 2.338-.763.574-.51.861-1.22.861-2.131a2.5 2.5 0 00-.431-1.447 4.983 4.983 0 00-1.138-1.162 11.65 11.65 0 00-1.61-.998l-1.847-.96a22.034 22.034 0 01-1.682-.926 8.404 8.404 0 01-1.466-1.122 5.209 5.209 0 01-1.037-1.385c-.26-.51-.39-1.09-.39-1.743 0-.841.185-1.595.554-2.263a5.346 5.346 0 011.457-1.681 6.572 6.572 0 012.083-1.04 8.319 8.319 0 012.41-.357c.478 0 .987.038 1.528.113.54.075 1.067.181 1.58.316.514.136.99.3 1.437.49.443.19.81.408 1.096.652.083.068.096.261.042.58-.055.32-.147.674-.278 1.06-.13.387-.272.761-.43 1.122-.158.36-.29.608-.4.743L228 20.716c-.548-1.047-1.166-1.804-1.856-2.273-.69-.469-1.406-.704-2.144-.704a3.27 3.27 0 00-1.18.203 3.029 3.029 0 00-.882.52c-.238.211-.42.453-.544.724a2.01 2.01 0 00-.185.837c0 .435.125.824.37 1.17.247.347.577.674.996.98a11 11 0 001.456.886c.553.286 1.138.59 1.753.917.59.3 1.185.62 1.786.959.602.34 1.14.73 1.62 1.173.478.44.87.944 1.17 1.507.3.565.45 1.226.45 1.987z" fill="#F4C12B"/></g></svg>